<svg xmlns="http://www.w3.org/2000/svg" xmlns:xlink="http://www.w3.org/1999/xlink" version="1.1" width="256" height="256" viewBox="0 0 256 256" xml:space="preserve">

<defs>
</defs>
<g style="stroke: none; stroke-width: 0; stroke-dasharray: none; stroke-linecap: butt; stroke-linejoin: miter; stroke-miterlimit: 10; fill: none; fill-rule: nonzero; opacity: 1;" transform="translate(1.4065934065934016 1.4065934065934016) scale(2.81 2.81)" >
	<path d="M 60.391 44.54 c -12.553 0 -22.73 10.177 -22.73 22.73 S 47.837 90 60.391 90 c 12.553 0 22.73 -10.177 22.73 -22.73 S 72.944 44.54 60.391 44.54 z M 71.029 76.587 c -0.414 0.473 -0.993 0.714 -1.576 0.714 c -0.49 0 -0.981 -0.171 -1.378 -0.518 l -9.063 -7.939 c -0.454 -0.398 -0.714 -0.972 -0.714 -1.575 V 57.038 c 0 -1.156 0.937 -2.093 2.093 -2.093 s 2.093 0.937 2.093 2.093 v 9.283 l 8.349 7.313 C 71.702 74.396 71.79 75.719 71.029 76.587 z" style="stroke: none; stroke-width: 1; stroke-dasharray: none; stroke-linecap: butt; stroke-linejoin: miter; stroke-miterlimit: 10; fill: #888; fill-rule: nonzero; opacity: 1;" transform=" matrix(1 0 0 1 0 0) " stroke-linecap="round" />
	<path d="M 45.662 7.613 c 0.052 -0.333 0.087 -0.672 0.087 -1.02 C 45.748 2.952 42.796 0 39.155 0 c -3.642 0 -6.594 2.952 -6.594 6.594 c 0 0.348 0.035 0.686 0.087 1.02 h -7.419 c 0 6.06 4.912 10.972 10.972 10.972 h 5.908 c 6.06 0 10.972 -4.912 10.972 -10.972 H 45.662 z" style="stroke: none; stroke-width: 1; stroke-dasharray: none; stroke-linecap: butt; stroke-linejoin: miter; stroke-miterlimit: 10; fill: #888; fill-rule: nonzero; opacity: 1;" transform=" matrix(1 0 0 1 0 0) " stroke-linecap="round" />
	<path d="M 63.623 7.613 h -6.356 c 0 8.358 -6.8 15.158 -15.158 15.158 h -5.908 c -8.358 0 -15.158 -6.8 -15.158 -15.158 h -6.356 c -4.312 0 -7.807 3.495 -7.807 7.807 v 66.773 c 0 4.312 3.495 7.807 7.807 7.807 h 31.316 c -7.522 -4.778 -12.528 -13.178 -12.528 -22.73 c 0 -14.841 12.075 -26.916 26.917 -26.916 c 3.933 0 7.668 0.855 11.039 2.378 V 15.42 C 71.43 11.109 67.935 7.613 63.623 7.613 z" style="stroke: none; stroke-width: 1; stroke-dasharray: none; stroke-linecap: butt; stroke-linejoin: miter; stroke-miterlimit: 10; fill: #888; fill-rule: nonzero; opacity: 1;" transform=" matrix(1 0 0 1 0 0) " stroke-linecap="round" />
</g>
</svg>